<svg height="512" viewBox="0 0 60 60" width="512" xmlns="http://www.w3.org/2000/svg"><g id="Page-1" fill="none" fill-rule="evenodd"><g id="005---Collar" fill="rgb(0,0,0)" fill-rule="nonzero"><path id="Shape" d="m3.567 30.976c4.427 2.439 10.492 4 18.016 4.654.9216962.8771392 2.1446437 1.3674635 3.417 1.37h4v3.051c-5.3015493.5328257-9.2542081 5.1289259-8.9874607 10.4505021.2667473 5.3215763 4.6592032 9.4993723 9.9874607 9.4993723s9.7207134-4.177796 9.9874607-9.4993723c.2667474-5.3215762-3.6859114-9.9176764-8.9874607-10.4505021v-3.051h4c1.2723563-.0025365 2.4953038-.4928608 3.417-1.37 7.524-.653 13.589-2.215 18.016-4.654 2.2057116-1.2207595 3.5724448-3.5450105 3.567-6.066v-11.91c.0350616-4.49126367-2.6925343-8.54273866-6.867-10.2-6.518-2.584-15.358-2.8-23.133-2.8s-16.615.216-23.133 2.8c-4.17446566 1.65726134-6.90206162 5.70873633-6.867 10.2v11.91c-.00544479 2.5209895 1.36128838 4.8452405 3.567 6.066zm34.433 19.024c.0033528 4.2891249-3.376431 7.8177346-7.661721 7.9990985-4.28529.1813638-7.9511324-3.0490579-8.3101948-7.3231283-.3590623-4.2740704 2.7164305-8.0708281 6.9719158-8.6069702v1.931c0 .5522847.4477153 1 1 1s1-.4477153 1-1v-1.931c3.995865.507003 6.9933065 3.9031042 7 7.931zm-3-33h-10c-1.3651459.0020035-2.6695655.5645526-3.608 1.556-3.1812964-.2682944-6.3358237-.7923211-9.433-1.567 5.9080022-1.4080819 11.968144-2.0762058 18.041-1.989 6.073586-.0874691 12.1344629.5809977 18.043 1.99-3.0967207.7758539-6.25093 1.3008866-9.432 1.57-.9380485-.9942714-2.2440661-1.5584883-3.611-1.56zm0 18h-4v-2h3c1.1045695 0 2-.8954305 2-2v-8c0-1.1045695-.8954305-2-2-2h-8c-1.1045695 0-2 .8954305-2 2v8c0 1.1045695.8954305 2 2 2h3v2h-4c-1.6568542 0-3-1.3431458-3-3v-10c0-1.6568542 1.3431458-3 3-3h10c1.6568542 0 3 1.3431458 3 3v10c0 1.6568542-1.3431458 3-3 3zm-5-5c-.5522847 0-1 .4477153-1 1h-3v-8h8v8h-3c0-.5522847-.4477153-1-1-1zm28-5.09c.0053702 1.7920081-.9647995 3.444975-2.532 4.314-3.886 2.141-9.178 3.567-15.72 4.264.1598862-.4801232.2448822-.9820048.252-1.488v-1.194c5.3391908-.4181899 10.5650149-1.7615285 15.444-3.97.490734-.2474257.6898335-.844498.4458137-1.3369345-.2440198-.4924364-.8396985-.6956678-1.3338137-.4550655-4.6008646 2.0760104-9.5247606 3.3445327-14.556 3.75v-6.794c-.0070494-.5260175-.0978541-1.0475533-.269-1.545 4.1265055-.3697677 8.1959133-1.2188195 12.126-2.53 2.1625346-.7227877 4.2262086-1.7131362 6.1430222-2.948zm-50.4-20.251c6.194-2.453 14.81-2.659 22.4-2.659s16.206.206 22.4 2.659c3.2231725 1.32076875 5.3928468 4.38512194 5.568 7.864-1.9653423 1.4662629-4.1494626 2.6136685-6.472 3.4-5.64-1.908-13.049-2.923-21.496-2.923s-15.856 1.014-21.492 2.923c-2.32280127-.7857161-4.50701474-1.9331706-6.472-3.4.17445451-3.47792239 2.34239205-6.54202391 5.564-7.864zm-5.60002218 10.318c1.91497221 1.233829 3.97661506 2.2234982 6.13702218 2.946 3.932337 1.3126232 8.0046417 2.1610479 12.134 2.528-.1728484.4984513-.2643517 1.0214718-.271 1.549v6.792c-5.0204965-.4132692-9.9334972-1.6811731-14.527-3.749-.32062884-.1609277-.70289494-.1377735-1.00175589.0606773-.29886094.1984508-.46851847.5417871-.4445998.8997375.02391868.3579504.2377482.6756616.56035569.8325852 4.8714948 2.1978153 10.0856116 3.5388105 15.413 3.964v1.2c.0071178.5059952.0921138 1.0078768.252 1.488-6.541-.7-11.833-2.123-15.72-4.264-1.56720052-.869025-2.53737022-2.5219919-2.532-4.314z"/><path id="Shape" d="m9.078 8.377c5.534-2.193 13.701-2.377 20.922-2.377s15.388.184 20.923 2.377c.3342437.14194345.7191675.09153653 1.0055917-.13168524s.4293289-.58417252.3733304-.94296349-.3020984-.6590276-.6429221-.78435127c-5.859-2.318-14.254-2.518-21.659-2.518s-15.8.2-21.66 2.518c-.33207838.131831-.56860045.43080957-.62047064.78431338-.05187019.3535038.08879182.70782721.36900001.92950001s.65739226.27701763.98947063.14518661z"/><path id="Shape" d="m25 49c0 .5522847.4477153 1 1 1h8c.5522847 0 1-.4477153 1-1s-.4477153-1-1-1h-8c-.5522847 0-1 .4477153-1 1z"/><path id="Shape" d="m32 52h-4c-.5522847 0-1 .4477153-1 1s.4477153 1 1 1h4c.5522847 0 1-.4477153 1-1s-.4477153-1-1-1z"/></g></g></svg>